<svg width="960" height="720" viewBox="0 0 960 720" fill="none" xmlns="http://www.w3.org/2000/svg">
  <rect width="960" height="720" rx="40" fill="#F2FBF3"/>
  <rect x="130" y="145" width="700" height="430" rx="38" fill="#FFFFFF" stroke="#15803D" stroke-width="12"/>
  <rect x="195" y="225" width="200" height="122" rx="22" fill="#DCFCE7" stroke="#15803D" stroke-width="8"/>
  <rect x="560" y="225" width="200" height="122" rx="22" fill="#DCFCE7" stroke="#15803D" stroke-width="8"/>
  <rect x="380" y="400" width="200" height="122" rx="22" fill="#FEF3C7" stroke="#15803D" stroke-width="8"/>
  <path d="M395 286H520M520 286L490 260M520 286L490 312" stroke="#15803D" stroke-width="12" stroke-linecap="round" stroke-linejoin="round"/>
  <path d="M660 350V390C660 420 630 440 590 450M590 450L615 423M590 450L625 468" stroke="#15803D" stroke-width="12" stroke-linecap="round" stroke-linejoin="round"/>
  <path d="M370 450C320 440 295 415 295 375V352M295 352L270 382M295 352L320 382" stroke="#15803D" stroke-width="12" stroke-linecap="round" stroke-linejoin="round"/>
  <circle cx="295" cy="286" r="28" fill="#FACC15"/>
  <circle cx="660" cy="286" r="28" fill="#FACC15"/>
  <circle cx="480" cy="461" r="28" fill="#15803D"/>
  <path d="M454 461H506M480 435V487" stroke="#FFFFFF" stroke-width="10" stroke-linecap="round"/>
  <text x="227" y="300" fill="#166534" font-family="Arial, sans-serif" font-size="32" font-weight="800">LINE</text>
  <text x="610" y="300" fill="#166534" font-family="Arial, sans-serif" font-size="32" font-weight="800">AI</text>
  <text x="424" y="476" fill="#166534" font-family="Arial, sans-serif" font-size="32" font-weight="800">確認</text>
</svg>
