<svg width="960" height="720" viewBox="0 0 960 720" fill="none" xmlns="http://www.w3.org/2000/svg">
  <rect width="960" height="720" rx="40" fill="#F2FBF3"/>
  <path d="M0 520C150 460 310 515 450 450C600 380 750 430 960 350V720H0V520Z" fill="#BFE8C5"/>
  <rect x="220" y="295" width="520" height="235" rx="30" fill="#FFFFFF" stroke="#15803D" stroke-width="12"/>
  <path d="M185 315L480 145L775 315" fill="#FACC15"/>
  <path d="M185 315L480 145L775 315" stroke="#15803D" stroke-width="12" stroke-linejoin="round"/>
  <rect x="305" y="370" width="118" height="160" rx="18" fill="#DCFCE7" stroke="#15803D" stroke-width="8"/>
  <rect x="530" y="360" width="120" height="85" rx="18" fill="#DCFCE7" stroke="#15803D" stroke-width="8"/>
  <path d="M690 458H810M750 398V518" stroke="#DC2626" stroke-width="28" stroke-linecap="round"/>
  <circle cx="750" cy="458" r="96" stroke="#DC2626" stroke-width="12"/>
  <path d="M112 218H215M164 166V270" stroke="#15803D" stroke-width="18" stroke-linecap="round"/>
</svg>
