<svg width="960" height="720" viewBox="0 0 960 720" fill="none" xmlns="http://www.w3.org/2000/svg">
  <rect width="960" height="720" rx="40" fill="#F2FBF3"/>
  <rect x="88" y="82" width="784" height="520" rx="34" fill="#FFFFFF" stroke="#BFE8C5" stroke-width="6"/>
  <circle cx="330" cy="260" r="70" fill="#E8F6EA" stroke="#15803D" stroke-width="10"/>
  <circle cx="480" cy="230" r="82" fill="#FACC15" stroke="#15803D" stroke-width="10"/>
  <circle cx="630" cy="260" r="70" fill="#E8F6EA" stroke="#15803D" stroke-width="10"/>
  <path d="M235 520C250 415 300 360 380 360H580C660 360 710 415 725 520" fill="#E8F6EA"/>
  <path d="M235 520C250 415 300 360 380 360H580C660 360 710 415 725 520" stroke="#15803D" stroke-width="12" stroke-linecap="round"/>
  <path d="M410 455H550M430 500H530" stroke="#15803D" stroke-width="14" stroke-linecap="round"/>
  <path d="M180 160H275M685 160H780" stroke="#FACC15" stroke-width="18" stroke-linecap="round"/>
</svg>
