<svg width="960" height="720" viewBox="0 0 960 720" fill="none" xmlns="http://www.w3.org/2000/svg">
  <rect width="960" height="720" rx="40" fill="#F2FBF3"/>
  <rect x="70" y="72" width="820" height="520" rx="34" fill="#FFFFFF" stroke="#BFE8C5" stroke-width="6"/>
  <rect x="130" y="130" width="420" height="138" rx="26" fill="#F7FAF8" stroke="#15803D" stroke-width="10"/>
  <rect x="170" y="214" width="340" height="18" rx="9" fill="#15803D"/>
  <path d="M215 298C252 342 252 386 215 430" stroke="#22C55E" stroke-width="16" stroke-linecap="round"/>
  <path d="M340 298C377 342 377 386 340 430" stroke="#22C55E" stroke-width="16" stroke-linecap="round"/>
  <path d="M465 298C502 342 502 386 465 430" stroke="#22C55E" stroke-width="16" stroke-linecap="round"/>
  <rect x="620" y="330" width="180" height="150" rx="20" fill="#E8F6EA" stroke="#15803D" stroke-width="10"/>
  <circle cx="710" cy="405" r="45" fill="#FFFFFF" stroke="#15803D" stroke-width="8"/>
  <circle cx="710" cy="405" r="16" fill="#FACC15"/>
  <path d="M552 254C606 278 643 300 668 335" stroke="#15803D" stroke-width="12" stroke-linecap="round"/>
  <path d="M555 284C600 310 621 331 638 360" stroke="#86EFAC" stroke-width="12" stroke-linecap="round"/>
  <rect x="620" y="488" width="180" height="22" rx="11" fill="#15803D"/>
  <circle cx="180" cy="565" r="18" fill="#FACC15"/>
  <circle cx="780" cy="150" r="34" fill="#FACC15"/>
  <path d="M760 150H800M780 130V170" stroke="#15803D" stroke-width="8" stroke-linecap="round"/>
</svg>
