<svg width="960" height="720" viewBox="0 0 960 720" fill="none" xmlns="http://www.w3.org/2000/svg">
  <rect width="960" height="720" rx="40" fill="#F2FBF3"/>
  <rect x="80" y="92" width="800" height="500" rx="34" fill="#FFFFFF" stroke="#BFE8C5" stroke-width="6"/>
  <rect x="160" y="285" width="640" height="180" rx="24" fill="#E8F6EA" stroke="#15803D" stroke-width="10"/>
  <rect x="210" y="225" width="540" height="90" rx="24" fill="#F7FAF8" stroke="#15803D" stroke-width="10"/>
  <circle cx="345" cy="360" r="48" fill="#FFFFFF" stroke="#15803D" stroke-width="8"/>
  <circle cx="615" cy="360" r="48" fill="#FFFFFF" stroke="#15803D" stroke-width="8"/>
  <path d="M310 360H380M345 325V395M580 360H650M615 325V395" stroke="#22C55E" stroke-width="8" stroke-linecap="round"/>
  <rect x="250" y="480" width="460" height="44" rx="16" fill="#15803D"/>
  <circle cx="300" cy="502" r="10" fill="#FACC15"/>
  <circle cx="345" cy="502" r="10" fill="#FACC15"/>
  <circle cx="390" cy="502" r="10" fill="#FACC15"/>
  <path d="M275 180C300 140 340 140 365 180M595 180C620 140 660 140 685 180" stroke="#FACC15" stroke-width="18" stroke-linecap="round"/>
</svg>
